<?xml version="1.0" encoding="iso-8859-1"?>
<!-- Generator: Adobe Illustrator 18.0.0, SVG Export Plug-In . SVG Version: 6.00 Build 0)  -->
<!DOCTYPE svg PUBLIC "-//W3C//DTD SVG 1.1//EN" "http://www.w3.org/Graphics/SVG/1.1/DTD/svg11.dtd">
<svg version="1.1" id="Capa_1" xmlns="http://www.w3.org/2000/svg" xmlns:xlink="http://www.w3.org/1999/xlink" x="0px" y="0px"
	 viewBox="0 0 474.438 474.438" style="enable-background:new 0 0 474.438 474.438;" xml:space="preserve">
<g>
	<path d="M236.764,61.557c6.135-11.504,16.833-22.563,27.97-31.986c-6.117-9.943-12.23-18.434-16.035-23.263
		C245.492,2.241,241.414,0,237.22,0c-4.196,0-8.272,2.241-11.479,6.308c-3.891,4.944-10.194,13.725-16.449,23.964
		C220.237,39.516,230.692,50.312,236.764,61.557z"/>
	<path d="M61.557,237.673C50.056,231.54,39,220.847,29.58,209.714c-9.943,6.116-18.44,12.225-23.274,16.029
		C2.241,228.947,0,233.023,0,237.219s2.24,8.272,6.309,11.479c4.944,3.892,13.725,10.194,23.964,16.449
		C39.516,254.201,50.311,243.746,61.557,237.673z"/>
	<path d="M388.375,109.228c5.018,0,10.103,0.259,15.102,0.685c2.716-11.381,4.41-21.738,5.14-27.858
		c0.571-4.829-0.558-9.116-3.179-12.065c-2.507-2.821-6.178-4.313-10.615-4.313c-0.793,0-1.614,0.05-2.442,0.148
		c-6.247,0.745-16.912,2.496-28.574,5.313c1.204,14.274,0.963,29.299-2.694,41.544C368.654,110.388,377.793,109.228,388.375,109.228
		z"/>
	<path d="M468.129,225.741c-4.944-3.892-13.725-10.195-23.965-16.449c-9.242,10.946-20.037,21.4-31.282,27.473
		c11.5,6.134,22.556,16.828,31.976,27.96c9.943-6.116,18.44-12.225,23.274-16.03c4.064-3.204,6.305-7.28,6.305-11.475
		C474.438,233.024,472.197,228.947,468.129,225.741z"/>
	<path d="M403.284,363.74c-4.973,0.429-10.026,0.69-15.005,0.69c-10.273,0-19.15-1.136-26.532-3.344
		c3.801,12.474,4.058,27.864,2.846,42.407c11.355,2.707,21.684,4.395,27.792,5.123c0.823,0.098,1.646,0.147,2.439,0.147
		c4.436,0,8.105-1.491,10.612-4.312c2.621-2.95,3.75-7.236,3.178-12.069C407.868,386.121,406.111,375.428,403.284,363.74z"/>
	<path d="M237.673,412.882c-6.133,11.5-16.826,22.556-27.959,31.976c6.115,9.944,12.225,18.44,16.029,23.274
		c3.204,4.065,7.28,6.305,11.475,6.305c4.196,0,8.273-2.241,11.481-6.309c3.891-4.943,10.193-13.724,16.447-23.962
		C254.201,434.923,243.746,424.127,237.673,412.882z"/>
	<path d="M237.219,109.726c-70.3,0-127.493,57.193-127.493,127.493c0,70.3,57.193,127.494,127.493,127.494
		c70.301,0,127.494-57.194,127.494-127.494C364.713,166.919,307.52,109.726,237.219,109.726z"/>
	<path d="M251.269,85.611c0.218,0.486,0.544,0.958,0.927,1.424c30.11,2.979,57.644,14.849,79.941,32.935
		c2.009-0.136,5.16-1.218,8.689-9.803c8.828-21.467-0.745-66.574-5.178-82.143c-1.981-6.956-6.811-11.108-12.922-11.108
		c-2.714,0-5.511,0.8-8.312,2.378c-14.108,7.963-52.659,33.324-61.464,54.741C251.452,77.682,249.942,82.651,251.269,85.611z"/>
	<path d="M141.692,120.461c-0.003,0.002-0.004,0.004-0.007,0.006c22.214-18.211,49.696-30.219,79.78-33.354h-0.001
		c0.38-0.467,0.703-0.941,0.918-1.427c1.311-2.967-0.224-7.928-1.742-11.567c-8.936-21.421-47.602-46.549-61.746-54.423
		c-2.784-1.55-5.56-2.336-8.252-2.336c-6.145,0-10.981,4.178-12.935,11.176c-4.345,15.607-13.671,60.798-4.753,82.169
		C136.547,119.315,139.701,120.339,141.692,120.461z"/>
	<path d="M74.033,221.486c3.544,1.457,6.51,2.196,8.817,2.196c1.549,0,2.915-0.51,4.195-1.545c-0.002,0.021-0.003,0.043-0.005,0.064
		c2.985-30.084,14.845-57.592,32.912-79.876c0,0.001,0,0.001,0,0.001c-0.058-0.642-0.17-1.241-0.373-1.768
		c-1.171-3.025-5.765-5.448-9.412-6.948c-5.812-2.39-13.889-3.602-24.007-3.602c-26.903,0-57.83,8.694-58.139,8.782
		c-4.978,1.417-8.601,4.335-10.196,8.215c-1.596,3.88-1.074,8.503,1.469,13.016C27.255,174.129,52.617,212.68,74.033,221.486z"/>
	<path d="M391.463,222.883c2.313,0,5.294-0.754,8.858-2.241c21.418-8.938,46.545-47.603,54.42-61.747
		c2.52-4.526,3.018-9.15,1.402-13.023c-1.616-3.872-5.253-6.771-10.242-8.164c-0.302-0.084-30.774-8.481-57.527-8.481
		c-10.424,0-18.716,1.254-24.644,3.728c-3.639,1.518-8.22,3.964-9.375,6.996c-0.2,0.524-0.309,1.121-0.362,1.76
		c18.18,22.188,30.174,49.626,33.322,79.662C388.586,222.386,389.937,222.883,391.463,222.883z"/>
	<path d="M400.403,252.951c-3.544-1.457-6.511-2.196-8.816-2.196c-1.547,0-2.912,0.508-4.19,1.542
		c0.004-0.038,0.006-0.076,0.01-0.113c-2.977,30.105-14.84,57.632-32.917,79.929c0.058,0.643,0.169,1.241,0.373,1.768
		c1.171,3.025,5.764,5.448,9.41,6.948c5.812,2.389,13.889,3.601,24.007,3.601c26.983,0,57.828-8.693,58.137-8.781
		c4.981-1.418,8.604-4.336,10.199-8.216c1.596-3.88,1.073-8.503-1.47-13.017C447.181,300.308,421.819,261.757,400.403,252.951z"/>
	<path d="M332.751,353.975c0.002-0.001,0.004-0.003,0.006-0.005c-22.215,18.212-49.698,30.221-79.783,33.355
		c-0.381,0.468-0.704,0.941-0.919,1.428c-1.312,2.968,0.224,7.929,1.742,11.568c8.917,21.37,47.598,46.532,61.749,54.424
		c2.78,1.547,5.557,2.332,8.249,2.332c6.147,0,10.982-4.178,12.936-11.175c4.344-15.607,13.669-60.802,4.754-82.172
		C337.894,355.128,334.741,354.099,332.751,353.975z"/>
	<path d="M223.168,388.827c-0.218-0.486-0.543-0.957-0.926-1.423c0,0,0.001,0,0.002,0c-30.111-2.98-57.645-14.85-79.944-32.937
		c-2.009,0.137-5.16,1.22-8.689,9.803c-8.826,21.466,0.747,66.575,5.18,82.145c1.98,6.956,6.811,11.108,12.922,11.108
		c2.714,0,5.51-0.8,8.311-2.378c14.108-7.963,52.658-33.324,61.463-54.741C222.986,396.757,224.495,391.788,223.168,388.827z"/>
	<path d="M82.976,251.555c-2.313,0-5.294,0.754-8.858,2.241c-21.37,8.917-46.532,47.598-54.424,61.75
		c-2.517,4.522-3.015,9.146-1.4,13.018c1.616,3.873,5.254,6.773,10.244,8.167c0.3,0.083,30.774,8.481,57.527,8.481
		c10.423,0,18.714-1.254,24.642-3.727c3.638-1.518,8.218-3.965,9.374-6.997c0.201-0.526,0.309-1.124,0.363-1.764
		c-18.178-22.187-30.17-49.624-33.319-79.657C85.854,252.052,84.502,251.555,82.976,251.555z"/>
	<path d="M71.153,110.698c4.974-0.429,10.027-0.689,15.005-0.689c10.273,0,19.151,1.136,26.534,3.344
		c-3.803-12.477-4.06-27.872-2.848-42.418c-11.356-2.705-21.683-4.388-27.789-5.111c-0.828-0.098-1.649-0.148-2.443-0.148
		c-4.436,0-8.105,1.491-10.612,4.312c-2.621,2.95-3.749,7.237-3.177,12.069C66.57,88.317,68.327,99.01,71.153,110.698z"/>
	<path d="M86.064,365.211c-5.021,0-10.111-0.26-15.112-0.686c-2.714,11.383-4.402,21.738-5.127,27.855
		C65.252,397.214,66.38,401.5,69,404.45c2.506,2.821,6.177,4.312,10.614,4.312c0.794,0,1.616-0.05,2.444-0.148
		c6.248-0.744,16.914-2.496,28.577-5.314c-1.205-14.274-0.964-29.299,2.692-41.543C105.784,364.05,96.644,365.211,86.064,365.211z"
		/>
</g>
</svg>
